<svg xmlns="http://www.w3.org/2000/svg" viewBox="0 0 960 540" role="img" aria-labelledby="title desc">
  <title id="title">Illustrative image segmentation scene</title>
  <desc id="desc">A stylized academic segmentation diagram with image tiles, colored masks, and labeled regions.</desc>
  <rect width="960" height="540" fill="#f8fafc"/>
  <rect x="70" y="62" width="820" height="416" rx="18" fill="#ffffff" stroke="#d9e2ec" stroke-width="3"/>
  <rect x="112" y="112" width="250" height="150" rx="12" fill="#dbeafe"/>
  <rect x="142" y="142" width="80" height="92" rx="10" fill="#f9c66d"/>
  <circle cx="282" cy="174" r="42" fill="#9dc3ff"/>
  <path d="M112 262h250v58H112z" fill="#d9f1ed"/>
  <rect x="392" y="112" width="250" height="150" rx="12" fill="#eef5fb"/>
  <path d="M422 245c32-72 72-114 119-126 42-10 76 10 96 50v76z" fill="#2f8f8a" opacity=".62"/>
  <path d="M392 262h250v58H392z" fill="#123a63" opacity=".18"/>
  <rect x="672" y="112" width="176" height="208" rx="12" fill="#edf4fa"/>
  <path d="M700 282c8-68 42-112 90-132 22-9 42-11 58-6v138z" fill="#f9c66d" opacity=".8"/>
  <circle cx="726" cy="166" r="34" fill="#2f8f8a" opacity=".5"/>
  <rect x="112" y="360" width="736" height="44" rx="10" fill="#eef5fb"/>
  <rect x="142" y="375" width="170" height="14" rx="7" fill="#123a63" opacity=".65"/>
  <rect x="338" y="375" width="128" height="14" rx="7" fill="#2f8f8a" opacity=".75"/>
  <rect x="492" y="375" width="210" height="14" rx="7" fill="#9dc3ff"/>
  <rect x="728" y="375" width="82" height="14" rx="7" fill="#f9c66d"/>
  <g fill="none" stroke="#123a63" stroke-width="2" opacity=".35">
    <path d="M362 187h30"/>
    <path d="M642 187h30"/>
    <path d="M480 320v40"/>
  </g>
</svg>
